# xmcd
#
# Track frame offsets: 
#        150
#        16683
#        34420
#        58563
#        81643
#        91459
#        117219
#        130731
#        144187
#        148874
#        163976
#        180133
#        191870
#        211090
#        227158
#        240860
#        257970
#        276459
#        296134
#        313630
#        344748
#
# Disc length: 4801 seconds
#
# Revision: 2
# Processed by: cddbd v1.5.2PL0 Copyright (c) Steve Scherf et al.
# Submitted via: ExactAudioCopy v0.99pb4
#
DISCID=3f12bf15
DTITLE=Sonny Boy Williamson - Bye Bye Sonny CD1 (With Yardbirds Feat. 
DTITLE=Eric Clapton [1-11], Animals Feat. Eric Burdon [12-22])
DYEAR=2006
DGENRE=Blues
TTITLE0=Bye Bye Bird
TTITLE1=Mister Downchild
TTITLE2=The River Rhine
TTITLE3=Twenty-Three Hours Too Long
TTITLE4=Lost Care
TTITLE5=Take It Easy
TTITLE6=Out Of The Water Coast
TTITLE7=Western Arizona
TTITLE8=Slow Walk
TTITLE9=Highway 69
TTITLE10=My Little Cabin
TTITLE11=Sonny's Slow Walk
TTITLE12=Pontiac Blues
TTITLE13=My Babe
TTITLE14=I Don't Care No More
TTITLE15=Baby Don't You Worry
TTITLE16=Night Time Is The Right Time
TTITLE17=I'm Gonna Put You Down
TTITLE18=Fattenin' Frogs For Snakes
TTITLE19=Nobody But You
TTITLE20=Bye, Bye Sonny, Bye Bye
EXTD=
EXTT0=
EXTT1=
EXTT2=
EXTT3=
EXTT4=
EXTT5=
EXTT6=
EXTT7=
EXTT8=
EXTT9=
EXTT10=
EXTT11=
EXTT12=
EXTT13=
EXTT14=
EXTT15=
EXTT16=
EXTT17=
EXTT18=
EXTT19=
EXTT20=
PLAYORDER=
